<?xml version="1.0" encoding="utf-8"?>
<svg version="1.1" id="logo" xmlns="http://www.w3.org/2000/svg" xmlns:xlink="http://www.w3.org/1999/xlink" x="0px"
	 y="0px" viewBox="0 0 64 56" style="enable-background:new 0 0 64 56;" xml:space="preserve">
<g>
	<path d="M34.2,54.2h-7.1c-2.1,0-3.8-1.7-3.8-3.8v-5.2L17.1,56h17.7C34.5,55.5,34.3,54.8,34.2,54.2z"/>
	<path d="M55.9,34.2c1.1,0.7,1.8,1.9,1.8,3.3c0,2.2-1.8,4-4,4h-10L43,42.7h12.7l4.9-8.5H55.9z"/>
</g>
<g>
	<path d="M23.3,27.2c0-2.1,1.7-3.8,3.8-3.8h7.3c1.7,0,3.2,1.2,3.6,2.8c0,0,0.1,0,0.1,0h23.4c0.7,0,1.3,0.2,1.9,0.5
		l-4.7-8.2c-0.2-0.4-0.6-0.6-1-0.6H26.9c-0.4,0-0.8,0.2-1,0.6l-4.8,8.4l2.3,3.9V27.2z"/>
	<path d="M17.1,33.8l-6.7,11.6c-0.2,0.4-0.2,0.8,0,1.1l5.1,8.9c0.2,0.3,0.6,0.5,1,0.5h0.6l6.4-11.1L17.1,33.8z"/>
	<path d="M23,11.1h31.5l-6-10.5c-0.2-0.4-0.6-0.6-1-0.6H16.6c-0.4,0-0.8,0.2-1,0.6L0.2,27.4c-0.2,0.4-0.2,0.8,0,1.1
		l6.1,10.5L22,11.7C22.2,11.3,22.5,11.1,23,11.1L23,11.1z"/>
</g>
<g>
	<path d="M53.6,54.9c0.6,0,1-0.4,1-1s-0.4-1-1-1H38.2c-0.6,0-1,0.4-1,1s0.4,1,1,1H53.6z"/>
	<path d="M61.4,47.6c0.6,0,1-0.4,1-1s-0.4-1-1-1H38.1c-0.6,0-1,0.4-1,1s0.4,1,1,1H61.4z"/>
	<path d="M35.3,43c0-0.4-0.4-0.8-0.8-0.8h-7.3c-0.4,0-0.8,0.4-0.8,0.8v7.3c0,0.4,0.4,0.8,0.8,0.8h7.3
		c0.4,0,0.8-0.4,0.8-0.8V43z M33.7,49.6h-5.8v-5.8h5.8V49.6z"/>
</g>
<g>
	<path d="M61.6,31.2c0.6,0,1-0.4,1-1s-0.4-1-1-1H38.2c-0.6,0-1,0.4-1,1s0.4,1,1,1H61.6z"/>
	<path d="M53.6,38.5c0.6,0,1-0.4,1-1s-0.4-1-1-1H38.2c-0.6,0-1,0.4-1,1s0.4,1,1,1H53.6z"/>
	<path d="M35.3,27.2c0-0.4-0.4-0.8-0.8-0.8h-7.3c-0.4,0-0.8,0.4-0.8,0.8v7.3c0,0.4,0.4,0.8,0.8,0.8h7.3
		c0.4,0,0.8-0.4,0.8-0.8V27.2z M33.7,33.8h-5.8V28h5.8V33.8z"/>
</g>
</svg>
