<?xml version="1.0" encoding="utf-8"?>
<svg version="1.1" id="logo" xmlns="http://www.w3.org/2000/svg" xmlns:xlink="http://www.w3.org/1999/xlink" x="0px"
	 y="0px" viewBox="0 0 64 64" style="enable-background:new 0 0 64 64;" xml:space="preserve">
	<path d="M63.9,31.5l-5.1-8.9c-0.2-0.4-0.6-0.6-1-0.6H26.9c-0.4,0-0.8,0.2-1,0.6l-3.7,6.4h2c3.7,0,7,1.6,9.3,4.2c0,0,0.1,0,0.1,0
	h17.3L42,48.3c-0.2,0.3-0.5,0.6-1,0.6h-4.4v3.1c0,3-1.1,5.8-2.9,8h13.7c0.4,0,0.7-0.2,0.9-0.5l15.2-26.4h0l0.3-0.5v0
	C64,32.2,64.1,31.8,63.9,31.5z" />
	<path d="M13.5,28.9h0.9L22,15.7c0.2-0.4,0.6-0.6,1-0.6v0h31.5l-6-10.5c-0.2-0.4-0.6-0.6-1-0.6H16.6c-0.4,0-0.8,0.2-1,0.6L0.2,31.4
	c-0.2,0.4-0.2,0.8,0,1.1l2.1,3.6C4.2,31.9,8.5,28.9,13.5,28.9z" />
	<path
		  d="M33.6,41.4c0-5.2-4.2-9.4-9.4-9.4H13.5c-5.2,0-9.4,4.2-9.4,9.4v10.7c0,5.2,4.2,9.4,9.4,9.4h10.7c5.2,0,9.4-4.2,9.4-9.4V41.4
	z M28.2,52.2c0,2.3-1.9,4.2-4.2,4.2H13.7c-2.3,0-4.2-1.9-4.2-4.2V42c0-2.3,1.9-4.2,4.2-4.2H24c2.3,0,4.2,1.9,4.2,4.2V52.2z" />
</svg>
