<?xml version="1.0" encoding="utf-8"?>
<svg version="1.1" id="logo" xmlns="http://www.w3.org/2000/svg" xmlns:xlink="http://www.w3.org/1999/xlink" x="0px"
	 y="0px" viewBox="0 0 64 56" style="enable-background:new 0 0 64 56;" xml:space="preserve">
<style type="text/css">
	.st0{fill:#428DD1;}
	.st1{fill:#7AD340;}
	.st2{fill:#0057BF;}
</style>
<g>
	<g>
		<path class="st0" d="M36.9,44.9h-0.6v0.8C36.4,45.4,36.7,45.1,36.9,44.9z"/>
		<path class="st0" d="M63.2,29c0.1,0.1,0.1,0.2,0.2,0.3l0.2-0.3H63.2z"/>
		<path class="st0" d="M38.2,55.8c-1.1,0-2-0.9-2-2c0-1.1,0.9-2,2-2h12.3l1.9-3.3H38.2c-0.8,0-1.6-0.5-1.8-1.2v3
			c0,1-0.8,1.8-1.8,1.8H27c-1,0-1.8-0.8-1.8-1.8v-5.3h-1.7L17.1,56h30.3c0.2,0,0.4-0.1,0.6-0.2H38.2z"/>
		<path class="st0" d="M49,32.2l-1.9,3.3h6.5c1.1,0,2,0.9,2,2c0,1.1-0.9,2-2,2h-8.8L42,44.3c0,0-0.1,0.1-0.1,0.1h12.8l7.1-12.3
			c-0.1,0-0.1,0-0.2,0H49z"/>
	</g>
	<g>
		<path class="st1" d="M17.1,33.8l-6.7,11.6c-0.2,0.4-0.2,0.8,0,1.1l5.1,8.9c0.2,0.3,0.6,0.5,1,0.5h0.6l6.4-11.1L17.1,33.8z"/>
		<path class="st1" d="M23,11.1h31.5l-6-10.5c-0.2-0.4-0.6-0.6-1-0.6H16.6c-0.4,0-0.8,0.2-1,0.6L0.2,27.4c-0.2,0.4-0.2,0.8,0,1.1
			l6.1,10.5L22,11.7C22.2,11.3,22.5,11.1,23,11.1L23,11.1z"/>
	</g>
	<g>
		<path class="st1" d="M28.4,36.4h-1.3c-0.3,0-0.5-0.1-0.7-0.2l1,1.8L28.4,36.4z"/>
		<path class="st1" d="M63.9,27.5l-5.1-8.9c-0.2-0.4-0.6-0.6-1-0.6H26.9c-0.4,0-0.8,0.2-1,0.6l-4.8,8.4l4.3,7.4v-7.1
			c0-1,0.8-1.8,1.8-1.8h7.3c1,0,1.8,0.8,1.8,1.8v1.8h0.4c0.4-0.4,0.9-0.7,1.5-0.7h23.4c0.6,0,1.1,0.3,1.5,0.7h0.5l0.3-0.5v0
			C64,28.2,64.1,27.8,63.9,27.5z"/>
	</g>
</g>
<g>
	<path class="st2" d="M61.4,47.6c0.6,0,1-0.4,1-1s-0.4-1-1-1H38.1c-0.6,0-1,0.4-1,1s0.4,1,1,1H61.4z"/>
	<path class="st2" d="M53.6,54.9c0.6,0,1-0.4,1-1s-0.4-1-1-1H38.2c-0.6,0-1,0.4-1,1s0.4,1,1,1H53.6z"/>
	<path class="st2" d="M34.5,51.2c0.4,0,0.8-0.4,0.8-0.8V43c0-0.4-0.4-0.8-0.8-0.8h-7.3c-0.4,0-0.8,0.4-0.8,0.8v7.3
		c0,0.4,0.4,0.8,0.8,0.8H34.5z M27.9,43.8h5.8v5.8h-5.8V43.8z"/>
</g>
<g>
	<path class="st2" d="M61.6,31.2c0.6,0,1-0.4,1-1s-0.4-1-1-1H38.2c-0.6,0-1,0.4-1,1s0.4,1,1,1H61.6z"/>
	<path class="st2" d="M53.6,38.5c0.6,0,1-0.4,1-1s-0.4-1-1-1H38.2c-0.6,0-1,0.4-1,1s0.4,1,1,1H53.6z"/>
	<path class="st2" d="M34.5,35.4c0.4,0,0.8-0.4,0.8-0.8v-7.3c0-0.4-0.4-0.8-0.8-0.8h-7.3c-0.4,0-0.8,0.4-0.8,0.8v7.3
		c0,0.4,0.4,0.8,0.8,0.8H34.5z M27.9,28h5.8v5.8h-5.8V28z"/>
</g>
</svg>
