<?xml version="1.0" encoding="utf-8"?>
<!-- Generator: Adobe Illustrator 21.0.2, SVG Export Plug-In . SVG Version: 6.00 Build 0)  -->
<svg version="1.1" id="layer1" xmlns="http://www.w3.org/2000/svg" xmlns:xlink="http://www.w3.org/1999/xlink" x="0px" y="0px"
	 viewBox="0 0 247.7 247.6" style="enable-background:new 0 0 247.7 247.6;" xml:space="preserve">
<g>
	<path d="M123.8,247.6c-26.9,0-53.7,0-80.6,0c-24,0-43.2-19.3-43.2-43.4C0,150.6,0,97,0,43.4C0,19.1,19.2,0,43.6,0
		c53.5,0,107,0,160.5,0c24.3,0,43.5,19.1,43.6,43.4c0,53.7,0,107.5,0,161.2c0,23.6-19.3,42.9-42.8,43c-0.4,0-0.7,0-1.1,0
		C177,247.6,150.4,247.6,123.8,247.6z M123.9,140.4c4.4,4.6,8.6,8.7,12.3,13.2c12.6,15.1,28.4,22.5,48.4,21.3
		c26.5-1.5,49.1-26.1,47.7-52.6c-2.2-40-42.3-60.4-76.4-44.5c-10.2,4.7-17,13.3-24.5,21.2c-2.5,2.6-4.9,5.2-7.7,8.1
		C118.2,101.3,113,96,108,90.4C96.6,77.6,82.4,72,65.3,72.6c-21.8,0.7-40.5,14.6-47.5,35.6c-6.6,20.2,0.5,43,17.5,56.1
		c21.2,16.3,51.8,14.2,70.6-4.9C111.8,153.4,117.5,147.1,123.9,140.4z"/>
	<path d="M182,95.2c11.3,0,22.7,8.1,26.3,20.5c3.6,12.6-1.5,25.5-12.7,32.4s-27.6,5.3-36.8-3.9c-6-6-11.7-12.3-17.6-18.4
		c-1.4-1.5-1.5-2.5-0.1-4.1c5.8-6.2,11.4-12.6,17.4-18.6C164.2,97.5,171.3,95.1,182,95.2z"/>
	<path d="M68.1,152.3c-13.9,0.1-25.4-8.2-28.9-20.7c-3.5-12.6,1.6-25.5,12.9-32.4c11.2-6.9,27.6-5.1,36.8,4.1
		c5.9,5.9,11.4,12.2,17.2,18.2c1.6,1.7,1.4,2.8-0.1,4.3c-5.3,5.5-10.5,11.1-15.6,16.7C84.4,149.2,76.9,152.3,68.1,152.3z"/>
</g>
</svg>
